<?xml version="1.0" encoding="UTF-8" standalone="no"?>
<!DOCTYPE svg PUBLIC "-//W3C//DTD SVG 1.1//EN" "http://www.w3.org/Graphics/SVG/1.1/DTD/svg11.dtd">
<svg width="100%" height="100%" viewBox="0 0 64 64" version="1.1" xmlns="http://www.w3.org/2000/svg" xmlns:xlink="http://www.w3.org/1999/xlink" xml:space="preserve" xmlns:serif="http://www.serif.com/" style="fill-rule:evenodd;clip-rule:evenodd;stroke-linejoin:round;stroke-miterlimit:2;">
    <path d="M46.839,23L26.609,23C26.195,23 25.813,23.213 25.605,23.56C25.605,23.56 23.983,35.499 21.404,37.148C15.854,40.697 16.158,39.31 16.158,39.31C15.949,39.657 15.948,40.087 16.156,40.436C16.361,40.785 16.746,41 17.161,41L37.391,41C37.791,41 38.181,40.799 38.396,40.44C38.396,40.44 43.554,40.327 45.128,37.702C46.702,35.078 47.843,24.69 47.843,24.69C48.052,24.343 48.053,23.913 47.845,23.564C47.639,23.215 47.254,23 46.839,23Z" style="fill:url(#_Linear1);fill-rule:nonzero;stroke:black;stroke-width:0.52px;"/>
    <g transform="matrix(6.12323e-17,1,-1,6.12323e-17,64,0)">
        <path d="M32,58C23.371,58 10.49,56.022 5.758,49.531C2.629,45.238 6,37.707 6,32C6,22.566 9.124,9.07 18.59,9.732C23.157,10.052 27.098,6 32,6C40.582,6 54.872,10.501 59.61,16.932C62.786,21.244 58,26.246 58,32C58,39.658 48.005,44.336 49.386,51.316C51.923,64.142 38.678,58 32,58ZM32,8C18.766,8 8,18.766 8,32C8,41.608 16.485,47.828 24.66,51.659C27.744,53.104 28.374,56 32,56C45.234,56 56,45.234 56,32C56,18.766 45.234,8 32,8Z" style="fill:url(#_Linear2);fill-rule:nonzero;stroke:black;stroke-width:0.48px;"/>
    </g>
    <defs>
        <linearGradient id="_Linear1" x1="0" y1="0" x2="1" y2="0" gradientUnits="userSpaceOnUse" gradientTransform="matrix(1.09055e-15,17.81,-17.81,1.09055e-15,32,23.024)"><stop offset="0" style="stop-color:rgb(37,170,225);stop-opacity:1"/><stop offset="1" style="stop-color:rgb(61,204,176);stop-opacity:1"/></linearGradient>
        <linearGradient id="_Linear2" x1="0" y1="0" x2="1" y2="0" gradientUnits="userSpaceOnUse" gradientTransform="matrix(52,0,0,52,6,32)"><stop offset="0" style="stop-color:rgb(37,170,225);stop-opacity:1"/><stop offset="1" style="stop-color:rgb(61,204,176);stop-opacity:1"/></linearGradient>
    </defs>
</svg>
